<svg width="48" height="48" viewBox="0 0 48 48" fill="none" xmlns="http://www.w3.org/2000/svg">
<circle opacity="0.2" cx="24" cy="24" r="24" fill="#FF6079"/>
<path fill-rule="evenodd" clip-rule="evenodd" d="M20.0511 12.6836C20.2258 12.1596 20.7921 11.8765 21.316 12.0511C21.84 12.2257 22.1231 12.7921 21.9485 13.316C21.2194 15.5032 19.5032 17.2194 17.316 17.9485L17.1229 18.0187C15.7899 18.5452 14.8652 19.7886 14.7543 21.2294L13.9969 31.0765C13.9545 31.6271 13.4738 32.0392 12.9231 31.9968C12.3724 31.9545 11.9604 31.4737 12.0027 30.9231L12.7602 21.076C12.938 18.7643 14.484 16.7843 16.6836 16.0511L16.9195 15.9663C18.3965 15.3955 19.5476 14.194 20.0511 12.6836ZM26.6838 12.0511C27.2077 11.8765 27.7741 12.1596 27.9487 12.6836C28.4522 14.194 29.6033 15.3955 31.0804 15.9663L31.3163 16.0511C33.5158 16.7843 35.0618 18.7643 35.2396 21.076L35.9971 30.9231C36.0394 31.4737 35.6274 31.9545 35.0767 31.9968C34.5261 32.0392 34.0453 31.6271 34.003 31.0765L33.2455 21.2294C33.1347 19.7886 32.2099 18.5452 30.877 18.0187L30.6838 17.9485C28.4967 17.2194 26.7804 15.5032 26.0513 13.316C25.8767 12.7921 26.1599 12.2257 26.6838 12.0511ZM17.8967 24.5529C17.65 24.0589 17.0494 23.8584 16.5553 24.1052C16.0612 24.352 15.8607 24.9525 16.1075 25.4466C16.5402 26.3129 16.8991 27.3394 17.187 28.4921C17.5412 29.9106 17.7706 31.4412 17.8981 32.9734C17.9428 33.5107 17.9716 34.0092 17.9875 34.4554L17.9924 34.6045L18 34.9998C18 35.5521 18.4477 35.9998 19 35.9998C19.5523 35.9998 20 35.5521 20 34.9998L19.9981 34.8158L19.9862 34.3841C19.9692 33.9074 19.9387 33.3775 19.8912 32.8074C19.7554 31.1756 19.5106 29.5421 19.1274 28.0075C18.8065 26.7226 18.4006 25.5617 17.8967 24.5529ZM30.1052 24.5529C30.352 24.0589 30.9526 23.8584 31.4466 24.1052C31.9407 24.352 32.1412 24.9525 31.8944 25.4466C31.4617 26.3129 31.1028 27.3394 30.815 28.4921C30.4607 29.9106 30.2314 31.4412 30.1038 32.9734C30.0591 33.5107 30.0304 34.0092 30.0144 34.4554L30.0095 34.6045L30.0019 34.9998C30.0019 35.5521 29.5542 35.9998 29.0019 35.9998C28.4496 35.9998 28.0019 35.5521 28.0019 34.9998L28.0038 34.8158L28.0157 34.3841C28.0327 33.9074 28.0632 33.3775 28.1107 32.8074C28.2466 31.1756 28.4913 29.5421 28.8746 28.0075C29.1954 26.7226 29.6014 25.5617 30.1052 24.5529ZM22 17.9998C22.5523 17.9998 23 18.4475 23 18.9998L22.9983 19.1218L22.9835 19.4162C22.9641 19.6885 22.9261 20.0261 22.8614 20.4142C22.6898 21.4438 22.3805 22.475 21.8945 23.447C21.6475 23.941 21.0468 24.1412 20.5528 23.8942C20.0588 23.6472 19.8586 23.0465 20.1056 22.5526C20.4946 21.7746 20.7477 20.9308 20.8886 20.0854C20.9096 19.9594 20.9271 19.8409 20.9415 19.731L20.9758 19.4279L20.9944 19.1821L21 18.9998C21 18.4475 21.4477 17.9998 22 17.9998ZM24.9998 18.9998C24.9998 18.4475 25.4475 17.9998 25.9998 17.9998C26.5521 17.9998 26.9998 18.4475 26.9998 18.9998L27.0054 19.1821L27.024 19.4279L27.0584 19.731C27.0727 19.8409 27.0902 19.9594 27.1112 20.0854C27.2521 20.9308 27.5052 21.7746 27.8942 22.5526C28.1412 23.0465 27.941 23.6472 27.447 23.8942C26.953 24.1412 26.3524 23.941 26.1054 23.447C25.6194 22.475 25.31 21.4438 25.1384 20.4142C25.0737 20.0261 25.0358 19.6885 25.0164 19.4162L25.0015 19.1218L24.9998 18.9998Z" fill="black"/>
</svg>
