<svg width="48" height="48" viewBox="0 0 48 48" fill="none" xmlns="http://www.w3.org/2000/svg">
<circle opacity="0.100563" cx="24" cy="24" r="24" fill="#FF798D"/>
<path fill-rule="evenodd" clip-rule="evenodd" d="M27.125 12L26.7812 12.0935C26.7812 12.0935 25.8789 12.2883 24.9688 12.8416C24.0586 13.3948 23 14.4584 23 16.0519C23 17.6455 24.0586 18.7091 24.9688 19.2623C25.3992 19.5247 25.6699 19.9905 25.5451 20.4789C25.4625 20.8023 25.3822 21.1796 25.3165 21.6072C25.1706 22.5565 22.4605 24.0312 21.5 24.0312C20.7773 24.0312 20.1172 24.261 19.375 24.561C18.6328 24.861 17.8477 25.2662 17.125 25.6519C15.6836 26.4195 14.4688 27.1792 14.4688 27.1792C14.178 27.3532 14 27.6672 14 28.006V33.0026C14 33.3878 14.2178 33.7398 14.5625 33.9117C14.5625 33.9117 18.7617 36 24 36C29.2315 36 33.4266 33.9171 33.4375 33.9117C33.4378 33.9115 33.4377 33.9116 33.438 33.9114C33.7798 33.741 34 33.3898 34 33.0078C34 28.0208 33.4414 23.6883 32.7812 20.4779C32.4531 18.8727 32.1172 17.5597 31.7812 16.5506C31.4453 15.5416 31.25 14.9494 30.75 14.4C30.1758 13.7649 29.3672 13.2468 28.6875 12.8416C28.0078 12.4364 27.4375 12.1558 27.4375 12.1558L27.125 12ZM26.9276 14C27.1194 14.0981 27.2877 14.1531 27.7104 14.4082C28.3209 14.7732 29.0176 15.2834 29.2759 15.5699C29.1937 15.4796 29.5969 16.1311 29.9022 17.0455C30.2074 17.96 30.5558 19.2316 30.8728 20.7818C31.4755 23.7253 31.9491 27.7402 32 32.3046C31.2407 32.6499 28.1761 34 24.0157 34C19.8278 34 16.7319 32.6381 16 32.3046V28.5369C16.3249 28.3328 16.955 27.9403 18.0665 27.3438C18.7515 26.9788 19.4912 26.6334 20.1331 26.3705C20.775 26.1075 21.3542 25.9623 21.5108 25.9623C22.7828 25.9623 23.8082 26.9082 23.9843 28.1287C24.0563 28.6157 24.4742 28.9765 24.9665 28.9765H26.74C27.4379 28.9765 27.9218 28.2807 27.6791 27.6264C26.2114 23.5879 27.9296 19.3061 27.9296 19.3061L28.3992 18.2072L27.2407 17.956C27.2407 17.956 26.6419 17.8148 26.0509 17.4537C25.4599 17.0926 25.0176 16.6609 25.0176 15.9152C25.0176 15.1695 25.4599 14.7378 26.0509 14.3768C26.4853 14.1099 26.7241 14.0589 26.9276 14Z" fill="black"/>
</svg>
