<svg width="16" height="16" viewBox="0 0 16 16" fill="none" xmlns="http://www.w3.org/2000/svg">
<path fill-rule="evenodd" clip-rule="evenodd" d="M6.4345 5.06283C6.32717 5.19216 6.2325 5.30816 6.15184 5.41083C5.98717 5.62083 5.83184 5.82616 5.68517 6.0255C4.54184 7.58883 3.99984 8.80283 3.99984 9.58749C3.99984 11.6408 5.7765 13.3335 7.99984 13.3335C10.2232 13.3335 11.9998 11.6415 11.9998 9.58749C11.9998 8.32883 10.6865 6.1675 8.0185 3.2855C7.22384 4.15683 6.69317 4.75216 6.4345 5.06283ZM7.99984 14.6668C5.0545 14.6668 2.6665 12.3928 2.6665 9.5875C2.6665 8.45883 3.31384 7.0095 4.60917 5.23883C4.86436 4.88638 5.13163 4.54285 5.4105 4.20883C5.78184 3.7635 6.64517 2.80483 7.99984 1.3335C11.5552 4.96616 13.3332 7.7175 13.3332 9.5875C13.3332 12.3928 10.9452 14.6668 7.99984 14.6668ZM7.99984 12.6668C6.5265 12.6668 5.33317 11.5295 5.33317 10.1268C5.33317 9.19216 6.22184 7.81616 7.99984 6.00016C9.77784 7.81616 10.6665 9.19216 10.6665 10.1268C10.6665 11.5295 9.47317 12.6668 7.99984 12.6668ZM6.6665 10.1268C6.6665 10.7782 7.24917 11.3335 7.99984 11.3335C8.7505 11.3335 9.33317 10.7782 9.33317 10.1268C9.33317 9.76883 8.89717 9.01016 7.99984 7.96683C7.1025 9.01016 6.6665 9.76883 6.6665 10.1268Z" fill="black"/>
</svg>
