<svg width="58" height="58" viewBox="0 0 58 58" fill="none" xmlns="http://www.w3.org/2000/svg">
<circle opacity="0.1" cx="29" cy="29" r="28" stroke="#040415" stroke-width="1.5" stroke-linecap="round" stroke-linejoin="round"/>
<path fill-rule="evenodd" clip-rule="evenodd" d="M25.6129 24.2097C25.2206 23.9047 24.6534 23.9324 24.2929 24.2929C23.9024 24.6834 23.9024 25.3166 24.2929 25.7071L27.5858 29L24.2929 32.2929L24.2097 32.3871C23.9047 32.7794 23.9324 33.3466 24.2929 33.7071C24.6834 34.0976 25.3166 34.0976 25.7071 33.7071L29 30.4142L32.2929 33.7071L32.3871 33.7903C32.7794 34.0953 33.3466 34.0676 33.7071 33.7071C34.0976 33.3166 34.0976 32.6834 33.7071 32.2929L30.4142 29L33.7071 25.7071L33.7903 25.6129C34.0953 25.2206 34.0676 24.6534 33.7071 24.2929C33.3166 23.9024 32.6834 23.9024 32.2929 24.2929L29 27.5858L25.7071 24.2929L25.6129 24.2097Z" fill="#040415"/>
</svg>
