<svg width="48" height="48" viewBox="0 0 48 48" fill="none" xmlns="http://www.w3.org/2000/svg">
<circle opacity="0.1" cx="24" cy="24" r="24" fill="#FF6079"/>
<path fill-rule="evenodd" clip-rule="evenodd" d="M24 12C22.3555 12 21 13.3555 21 15C21 16.6445 22.3555 18 24 18C25.6445 18 27 16.6445 27 15C27 13.3555 25.6445 12 24 12ZM24 14C24.5625 14 25 14.4375 25 15C25 15.5625 24.5625 16 24 16C23.4375 16 23 15.5625 23 15C23 14.4375 23.4375 14 24 14ZM15 19C14.4477 19 14 19.4477 14 20C14 20.5523 14.4477 21 15 21H21V35C21 35.5523 21.4477 36 22 36C22.5523 36 23 35.5523 23 35V28.7188L26 27.7188L27.5312 28.9688L24.6754 29.9544C24.2712 30.0939 24 30.4744 24 30.902C24 31.5919 24.6806 32.0756 25.3321 31.8488L28.9375 30.5938C29.4688 30.4102 29.8711 29.9609 29.9688 29.4062C30.0664 28.8516 29.8438 28.293 29.4062 27.9375L27 26V21H33C33.5523 21 34 20.5523 34 20C34 19.4477 33.5523 19 33 19H15ZM23 21H25V25.9375L23 26.625V21Z" fill="black"/>
</svg>
