<svg width="56" height="56" viewBox="0 0 56 56" fill="none" xmlns="http://www.w3.org/2000/svg">
<circle cx="28" cy="28" r="28" fill="url(#paint0_linear_202_15987)"/>
<g filter="url(#filter0_d_202_15987)">
<path fill-rule="evenodd" clip-rule="evenodd" d="M25.8787 20.7073L23.9623 22.6237C23.9234 22.6626 23.8813 22.6983 23.8364 22.7303C23.387 23.0513 22.7625 22.9472 22.4415 22.4978L21.3137 20.9189C20.8673 20.2939 20.1465 19.923 19.3784 19.923C18.0648 19.923 17 20.9878 17 22.3013V28.0002C17 30.7616 19.2386 33.0002 22 33.0002H34C36.7614 33.0002 39 30.7616 39 28.0002V22.3013C39 21.5333 38.6291 20.8124 38.004 20.366C36.9352 19.6025 35.4497 19.8501 34.6863 20.9189L33.5585 22.4978C33.5265 22.5426 33.4908 22.5847 33.4519 22.6237C33.0614 23.0142 32.4282 23.0142 32.0377 22.6237L30.1213 20.7073C28.9497 19.5357 27.0503 19.5357 25.8787 20.7073ZM28.7071 22.1215L30.6235 24.0379C31.795 25.2094 33.6945 25.2094 34.8661 24.0379C34.983 23.921 35.0899 23.7947 35.186 23.6603L36.3137 22.0814C36.4352 21.9114 36.6715 21.872 36.8416 21.9935C36.941 22.0645 37 22.1792 37 22.3013V28.0002C37 29.657 35.6569 31.0002 34 31.0002H22C20.3431 31.0002 19 29.657 19 28.0002V22.3013C19 22.0924 19.1694 21.923 19.3784 21.923C19.5006 21.923 19.6152 21.982 19.6863 22.0814L20.814 23.6603C21.777 25.0085 23.6507 25.3208 24.9989 24.3577C25.1334 24.2617 25.2597 24.1547 25.3765 24.0379L27.2929 22.1215C27.6834 21.731 28.3166 21.731 28.7071 22.1215Z" fill="url(#paint1_linear_202_15987)"/>
<path opacity="0.6" fill-rule="evenodd" clip-rule="evenodd" d="M37 35C37.5523 35 38 35.4477 38 36C38 36.5128 37.614 36.9355 37.1166 36.9933L37 37H19C18.4477 37 18 36.5523 18 36C18 35.4872 18.386 35.0645 18.8834 35.0067L19 35H37Z" fill="white"/>
</g>
<defs>
<filter id="filter0_d_202_15987" x="4" y="11" width="48" height="48" filterUnits="userSpaceOnUse" color-interpolation-filters="sRGB">
<feFlood flood-opacity="0" result="BackgroundImageFix"/>
<feColorMatrix in="SourceAlpha" type="matrix" values="0 0 0 0 0 0 0 0 0 0 0 0 0 0 0 0 0 0 127 0" result="hardAlpha"/>
<feOffset dy="7"/>
<feGaussianBlur stdDeviation="6"/>
<feColorMatrix type="matrix" values="0 0 0 0 1 0 0 0 0 0.705882 0 0 0 0 0.196078 0 0 0 0.48 0"/>
<feBlend mode="normal" in2="BackgroundImageFix" result="effect1_dropShadow_202_15987"/>
<feBlend mode="normal" in="SourceGraphic" in2="effect1_dropShadow_202_15987" result="shape"/>
</filter>
<linearGradient id="paint0_linear_202_15987" x1="-57.5949" y1="21.4986" x2="19.3342" y2="94.099" gradientUnits="userSpaceOnUse">
<stop stop-color="#FF617A"/>
<stop offset="1" stop-color="#FF8093"/>
</linearGradient>
<linearGradient id="paint1_linear_202_15987" x1="6.07181" y1="26.3714" x2="17.6062" y2="45.6368" gradientUnits="userSpaceOnUse">
<stop stop-color="white"/>
<stop offset="0.976463" stop-color="white" stop-opacity="0.8"/>
</linearGradient>
</defs>
</svg>
