<svg width="24" height="24" viewBox="0 0 24 24" fill="none" xmlns="http://www.w3.org/2000/svg">
<path fill-rule="evenodd" clip-rule="evenodd" d="M9.652 7.594C9.491 7.788 9.349 7.962 9.228 8.116C8.981 8.431 8.748 8.739 8.528 9.038C6.813 11.383 6 13.204 6 14.381C6 17.461 8.665 20 12 20C15.335 20 18 17.462 18 14.381C18 12.493 16.03 9.251 12.028 4.928C10.836 6.235 10.04 7.128 9.652 7.594ZM12 22C7.582 22 4 18.589 4 14.381C4 12.688 4.971 10.514 6.914 7.858C7.29678 7.32933 7.69769 6.81402 8.116 6.313C8.673 5.645 9.968 4.207 12 2C17.333 7.449 20 11.576 20 14.381C20 18.589 16.418 22 12 22ZM12 19C9.79 19 8 17.294 8 15.19C8 13.788 9.333 11.724 12 9C14.667 11.724 16 13.788 16 15.19C16 17.294 14.21 19 12 19ZM10 15.19C10 16.167 10.874 17 12 17C13.126 17 14 16.167 14 15.19C14 14.653 13.346 13.515 12 11.95C10.654 13.515 10 14.653 10 15.19Z" fill="black"/>
</svg>
