<svg width="25" height="24" viewBox="0 0 25 24" fill="none" xmlns="http://www.w3.org/2000/svg">
<path fill-rule="evenodd" clip-rule="evenodd" d="M12.6452 21.999C18.1011 21.9213 22.5 17.4744 22.5 12C22.5 6.47715 18.0228 2 12.5 2C6.97715 2 2.5 6.47715 2.5 12C2.5 17.4797 6.90747 21.93 12.3708 21.9992C11.8914 21.993 11.4124 21.9527 10.9374 21.8783V14.8904H8.39826V12H10.9374V9.79696C10.9374 7.29043 12.4304 5.90609 14.7148 5.90609C15.4646 5.91654 16.2127 5.98193 16.953 6.10174V8.56261H15.6922C14.45 8.56261 14.0626 9.33348 14.0626 10.1243V12H16.8361L16.3926 14.8904H14.0626V21.8783C13.5929 21.9519 13.1192 21.9921 12.6452 21.999Z" fill="#1D4BFF"/>
</svg>
