<svg width="58" height="58" viewBox="0 0 58 58" fill="none" xmlns="http://www.w3.org/2000/svg">
<circle opacity="0.1" cx="29" cy="29" r="28" stroke="#040415" stroke-width="1.5" stroke-linecap="round" stroke-linejoin="round"/>
<path fill-rule="evenodd" clip-rule="evenodd" d="M38 23H27.8293C27.4175 21.8348 26.3062 21 25 21C23.6938 21 22.5825 21.8348 22.1707 23H20C19.4477 23 19 23.4477 19 24C19 24.5523 19.4477 25 20 25H22.1707C22.5825 26.1652 23.6938 27 25 27C26.3062 27 27.4175 26.1652 27.8293 25H38C38.5523 25 39 24.5523 39 24C39 23.4477 38.5523 23 38 23ZM25 25C24.4477 25 24 24.5523 24 24C24 23.4477 24.4477 23 25 23C25.5523 23 26 23.4477 26 24C26 24.5523 25.5523 25 25 25ZM19 34C19 33.4477 19.4477 33 20 33H30.1707C30.5825 31.8348 31.6937 31 33 31C34.3063 31 35.4175 31.8348 35.8293 33H38C38.5523 33 39 33.4477 39 34C39 34.5523 38.5523 35 38 35H35.8293C35.4175 36.1652 34.3063 37 33 37C31.6937 37 30.5825 36.1652 30.1707 35H20C19.4477 35 19 34.5523 19 34ZM34 34C34 33.4477 33.5523 33 33 33C32.4477 33 32 33.4477 32 34C32 34.5523 32.4477 35 33 35C33.5523 35 34 34.5523 34 34Z" fill="#040415"/>
</svg>
