<svg width="20" height="20" viewBox="0 0 20 20" fill="none" xmlns="http://www.w3.org/2000/svg">
<path d="M10 0C7.28417 0 6.94375 0.0116667 5.87708 0.06C4.25208 0.134167 2.82458 0.532083 1.67833 1.67833C0.5325 2.82417 0.134167 4.25125 0.06 5.87708C0.0116667 6.94375 0 7.28417 0 10C0 12.7158 0.0116667 13.0562 0.06 14.1229C0.134167 15.7479 0.532083 17.1754 1.67833 18.3217C2.82417 19.4675 4.25125 19.8658 5.87708 19.94C6.94375 19.9883 7.28417 20 10 20C12.7158 20 13.0562 19.9883 14.1229 19.94C15.7475 19.8658 17.1754 19.4679 18.3217 18.3217C19.4675 17.1758 19.8658 15.7487 19.94 14.1229C19.9883 13.0562 20 12.7158 20 10C20 7.28417 19.9883 6.94375 19.94 5.87708C19.8658 4.25208 19.4679 2.82458 18.3217 1.67833C17.1758 0.5325 15.7487 0.134167 14.1229 0.06C13.0562 0.0116667 12.7158 0 10 0Z" fill="url(#paint0_linear_472_1849)"/>
<path fill-rule="evenodd" clip-rule="evenodd" d="M7.25117 3.3735C7.96242 3.341 8.1895 3.3335 9.99992 3.3335C11.8103 3.3335 12.0374 3.341 12.7487 3.3735C13.8324 3.42308 14.7841 3.6885 15.5478 4.45225C16.3116 5.21641 16.577 6.16808 16.6266 7.25141C16.6591 7.96266 16.6666 8.18975 16.6666 10.0002C16.6666 11.8106 16.6591 12.0377 16.6266 12.7489C16.577 13.8327 16.3116 14.7843 15.5478 15.5481C14.7837 16.3118 13.832 16.5772 12.7487 16.6268C12.0374 16.6593 11.8103 16.6668 9.99992 16.6668C8.1895 16.6668 7.96242 16.6593 7.25117 16.6268C6.16742 16.5772 5.21575 16.3118 4.452 15.5481C3.68825 14.7839 3.42284 13.8322 3.37325 12.7489C3.34075 12.0377 3.33325 11.8106 3.33325 10.0002C3.33325 8.18975 3.34075 7.96266 3.37325 7.25141C3.42284 6.16766 3.68825 5.216 4.452 4.45225C5.21617 3.6885 6.16784 3.42308 7.25117 3.3735ZM12.6937 4.5735C11.9908 4.54141 11.7799 4.53475 9.99992 4.53475C8.21992 4.53475 8.00909 4.54141 7.30617 4.5735C6.54742 4.60808 5.84325 4.76016 5.30159 5.30183C4.75992 5.8435 4.60784 6.54766 4.57325 7.30641C4.54117 8.00933 4.5345 8.22016 4.5345 10.0002C4.5345 11.7802 4.54117 11.991 4.57325 12.6939C4.60784 13.4527 4.75992 14.1568 5.30159 14.6985C5.84325 15.2402 6.54742 15.3922 7.30617 15.4268C8.00909 15.4589 8.21992 15.4656 9.99992 15.4656C11.7799 15.4656 11.9908 15.4589 12.6937 15.4268C13.4524 15.3922 14.1566 15.2402 14.6983 14.6985C15.2399 14.1568 15.392 13.4527 15.4266 12.6939C15.4587 11.991 15.4653 11.7802 15.4653 10.0002C15.4653 8.22016 15.4587 8.00933 15.4266 7.30641C15.392 6.54766 15.2399 5.8435 14.6983 5.30183C14.1566 4.76016 13.4524 4.60808 12.6937 4.5735ZM6.57659 10.0002C6.57659 8.10975 8.10909 6.57683 9.99992 6.57683C11.8908 6.57683 13.4233 8.10975 13.4233 10.0002C13.4233 11.8906 11.8903 13.4235 9.99992 13.4235C8.1095 13.4235 6.57659 11.8906 6.57659 10.0002ZM7.77784 10.0002C7.77784 11.2272 8.77242 12.2222 9.99992 12.2222C11.2274 12.2222 12.222 11.2277 12.222 10.0002C12.222 8.77308 11.2274 7.77808 9.99992 7.77808C8.77284 7.77808 7.77784 8.77266 7.77784 10.0002ZM13.5587 7.24141C14.0005 7.24141 14.3587 6.88324 14.3587 6.44141C14.3587 5.99958 14.0005 5.64141 13.5587 5.64141C13.1168 5.64141 12.7587 5.99958 12.7587 6.44141C12.7587 6.88324 13.1168 7.24141 13.5587 7.24141Z" fill="white"/>
<defs>
<linearGradient id="paint0_linear_472_1849" x1="10.0295" y1="27.3864" x2="27.4083" y2="10.0131" gradientUnits="userSpaceOnUse">
<stop stop-color="#FFDD55"/>
<stop offset="0.5" stop-color="#FF543E"/>
<stop offset="1" stop-color="#C837AB"/>
</linearGradient>
</defs>
</svg>
