<svg width="48" height="48" viewBox="0 0 48 48" fill="none" xmlns="http://www.w3.org/2000/svg">
<circle opacity="0.1" cx="24" cy="24" r="24" fill="url(#paint0_linear_202_15958)"/>
<path fill-rule="evenodd" clip-rule="evenodd" d="M15 14C13.355 14 12 15.355 12 17C12 18.645 13.355 20 15 20C16.645 20 18 18.645 18 17C18 15.355 16.645 14 15 14ZM15 16C15.5641 16 16 16.4359 16 17C16 17.5641 15.5641 18 15 18C14.4359 18 14 17.5641 14 17C14 16.4359 14.4359 16 15 16ZM27.0003 18.7509C26.8384 18.222 26.2781 17.9247 25.7494 18.0872L16.1289 21.043C14.0845 21.6645 13.3355 24.2708 14.7383 25.8828L19.707 32H13C12.4477 32 12 32.4477 12 33C12 33.5523 12.4477 34 13 34H35C35.5523 34 36 33.5523 36 33C36 32.4477 35.5523 32 35 32H25.8828L29.6562 27.7695L34.9465 24.3831C35.4119 24.0852 35.548 23.4664 35.2505 23.0007C34.9526 22.5344 34.3329 22.3982 33.8669 22.6964L28.4609 26.1562C28.384 26.2064 28.3143 26.2668 28.2539 26.3359L23.5508 31.6133C23.5428 31.6223 23.535 31.6314 23.5273 31.6406C23.3326 31.8739 23.0694 31.9878 22.8047 32H22.7344C22.4695 31.9923 22.2071 31.8837 22.0078 31.6562L16.2695 24.5938C16.2618 24.5858 16.254 24.578 16.2461 24.5703C15.7448 23.9943 15.9793 23.1795 16.7109 22.957L18.1055 22.5312L22.207 27.6094C22.2096 27.6133 22.2122 27.6172 22.2148 27.6211L22.2227 27.6289C22.4125 27.8636 22.6982 28 23 28C23.5523 28 24 27.5523 24 27C24 26.7711 23.9214 26.5491 23.7773 26.3711L23.7695 26.3633L20.168 21.8945L26.3371 20.0005C26.8651 19.8384 27.162 19.2791 27.0003 18.7509Z" fill="black"/>
<defs>
<linearGradient id="paint0_linear_202_15958" x1="-49.3671" y1="18.4274" x2="16.5722" y2="80.6563" gradientUnits="userSpaceOnUse">
<stop stop-color="#FF617A"/>
<stop offset="1" stop-color="#FF8093"/>
</linearGradient>
</defs>
</svg>
