<svg width="56" height="56" viewBox="0 0 56 56" fill="none" xmlns="http://www.w3.org/2000/svg">
<circle cx="28" cy="28" r="28" fill="url(#paint0_linear_689_228)"/>
<path fill-rule="evenodd" clip-rule="evenodd" d="M34.6586 28.262L20.6586 29.8656C19.1437 30.0391 18 31.3213 18 32.8461V33.0312L18.005 33.2056C18.0749 34.4121 18.8652 35.4253 19.9521 35.8216L20.137 35.8813L20.1875 36.0296C20.6153 37.1933 21.7177 38.0003 23 38.0003L23.1763 37.9952C24.3331 37.9282 25.314 37.2057 25.7533 36.1936L25.829 36.0003H30.176L30.1866 36.0296C30.6143 37.1933 31.7168 38.0003 33 38.0003L33.1763 37.9952C34.4011 37.9242 35.4288 37.1184 35.8251 36.0121L35.873 35.8643L36.0293 35.8128C37.193 35.385 38 34.2826 38 33.0003V31.2425C38 31.1284 37.9935 31.0144 37.9805 30.9011C37.792 29.255 36.3047 28.0734 34.6586 28.262ZM34.8862 30.249C35.4349 30.1861 35.9307 30.58 35.9935 31.1287C35.9978 31.1664 36 31.2044 36 31.2425V33.0003C36 33.5246 35.5945 33.9592 35.0757 33.9975L34.9633 34.001C34.464 34.0193 34.0614 34.4014 34.0064 34.8866L34 35.0003C34 35.5131 33.614 35.9358 33.1159 35.9936L32.9991 36.0003C32.4748 36.0003 32.0401 35.5948 32.0019 35.076L31.9984 34.9636C31.9787 34.4259 31.5371 34.0003 30.9991 34.0003H25C24.4872 34.0003 24.0645 34.3863 24.0067 34.8837L24 35.0003C24 35.5526 23.5523 36.0003 23 36.0003C22.4757 36.0003 22.0411 35.5948 22.0028 35.076L21.9993 34.9636C21.981 34.4643 21.5989 34.0617 21.1137 34.0067L20.9691 34.0003C20.4339 34.0003 20 33.5664 20 33.0312V32.8461C20 32.3378 20.3812 31.9104 20.8862 31.8526L34.8862 30.249Z" fill="white"/>
<path opacity="0.6" fill-rule="evenodd" clip-rule="evenodd" d="M29.9148 18.9824C31.451 18.5435 33.0498 19.3856 33.5702 20.8747L33.6235 21.0428L34.9615 25.7257C35.1132 26.2567 34.8057 26.8102 34.2747 26.9619C33.7816 27.1028 33.2691 26.8478 33.077 26.3854L33.0385 26.2751L31.7005 21.5923C31.5488 21.0612 30.9953 20.7537 30.4642 20.9055L30.3764 20.935L30.2918 20.9726L28.4472 21.8948C27.9532 22.1418 27.3525 21.9416 27.1055 21.4476C26.8762 20.9889 27.0325 20.4382 27.4515 20.1642L27.5528 20.106L29.3973 19.1837C29.5632 19.1008 29.7365 19.0334 29.9148 18.9824Z" fill="white"/>
<defs>
<linearGradient id="paint0_linear_689_228" x1="-26.5118" y1="26.5118" x2="26.5118" y2="79.5355" gradientUnits="userSpaceOnUse">
<stop stop-color="#FF7086"/>
<stop offset="1" stop-color="#FF7D7D" stop-opacity="0.4"/>
</linearGradient>
</defs>
</svg>
