<svg width="48" height="48" viewBox="0 0 48 48" fill="none" xmlns="http://www.w3.org/2000/svg">
<circle opacity="0.1" cx="24" cy="24" r="24" fill="#FF6079"/>
<path fill-rule="evenodd" clip-rule="evenodd" d="M29 14C31.6888 14 33.8818 16.1223 33.9954 18.7831L34 19V22H35C35.5523 22 36 22.4477 36 23C36 23.5128 35.614 23.9355 35.1166 23.9933L35 24H34V27C34 27.5523 33.5523 28 33 28C32.4872 28 32.0645 27.614 32.0067 27.1166L32 27V23V19C32 17.4023 30.7511 16.0963 29.1763 16.0051L29 16H19C17.4023 16 16.0963 17.2489 16.0051 18.8237L16 19V23V27C16 27.5523 15.5523 28 15 28C14.4872 28 14.0645 27.614 14.0067 27.1166L14 27V24H13C12.4477 24 12 23.5523 12 23C12 22.4872 12.386 22.0645 12.8834 22.0067L13 22H14V19C14 16.3112 16.1223 14.1182 18.7831 14.0046L19 14H29ZM29 32C29.5523 32 30 32.4477 30 33C30 33.5128 29.614 33.9355 29.1166 33.9933L29 34H19C18.4477 34 18 33.5523 18 33C18 32.4872 18.386 32.0645 18.8834 32.0067L19 32H29ZM27.9949 22.8237C27.9037 21.2489 26.5977 20 25 20H23L22.8237 20.0051C21.2489 20.0963 20 21.4023 20 23V27L20.0067 27.1166C20.0645 27.614 20.4872 28 21 28C21.5523 28 22 27.5523 22 27V23L22.0067 22.8834C22.0645 22.386 22.4872 22 23 22H25L25.1166 22.0067C25.614 22.0645 26 22.4872 26 23V27L26.0067 27.1166C26.0645 27.614 26.4872 28 27 28C27.5523 28 28 27.5523 28 27V23L27.9949 22.8237Z" fill="black"/>
</svg>
