<svg width="56" height="56" viewBox="0 0 56 56" fill="none" xmlns="http://www.w3.org/2000/svg">
<circle cx="28" cy="28" r="28" fill="url(#paint0_linear_566_3031)"/>
<path fill-rule="evenodd" clip-rule="evenodd" d="M23.4 18.7002L24.268 18.0492C25.2855 17.2861 26.6738 17.2475 27.7321 17.9531L31.547 20.4964C32.0398 20.8249 32.6188 21.0002 33.2111 21.0002H35C37.2091 21.0002 39 22.7911 39 25.0002V25.5002C39 27.9855 36.9853 30.0002 34.5 30.0002H22C19.2386 30.0002 17 27.7616 17 25.0002V20.0002C17 18.8956 17.8954 18.0002 19 18.0002C19.4327 18.0002 19.8538 18.1406 20.2 18.4002L20.6 18.7002C21.4296 19.3224 22.5704 19.3224 23.4 18.7002ZM30.4376 22.1605L26.6227 19.6172C26.2699 19.382 25.8072 19.3948 25.468 19.6492L24.6 20.3002C23.0593 21.4558 20.9407 21.4558 19.4 20.3002L19 20.0002V25.0002C19 26.6571 20.3431 28.0002 22 28.0002H34.5C35.8807 28.0002 37 26.8809 37 25.5002V25.0002C37 23.8956 36.1046 23.0002 35 23.0002H33.2111C32.224 23.0002 31.2589 22.708 30.4376 22.1605ZM20 33.0002C20 32.4479 20.4477 32.0002 21 32.0002H35C35.5523 32.0002 36 32.4479 36 33.0002C36 33.5525 35.5523 34.0002 35 34.0002H21C20.4477 34.0002 20 33.5525 20 33.0002ZM21 36.0002C20.4477 36.0002 20 36.4479 20 37.0002C20 37.5525 20.4477 38.0002 21 38.0002H27C27.5523 38.0002 28 37.5525 28 37.0002C28 36.4479 27.5523 36.0002 27 36.0002H21Z" fill="white"/>
<defs>
<linearGradient id="paint0_linear_566_3031" x1="28" y1="0" x2="28" y2="56" gradientUnits="userSpaceOnUse">
<stop stop-color="#FF6079"/>
<stop offset="1" stop-color="#FF6079" stop-opacity="0.49"/>
</linearGradient>
</defs>
</svg>
